<svg xmlns="http://www.w3.org/2000/svg" width="44" height="49.998" viewBox="0 0 44 49.998">
  <g id="Logo_Sign" transform="translate(0 0)">
    <g id="Layer_1" data-name="Layer 1" transform="translate(0 0)">
      <path id="Path_4314" data-name="Path 4314" d="M14.348,1.1,1.115,14.141A3.7,3.7,0,0,0,0,16.791v29.48A3.754,3.754,0,0,0,3.781,50H26.939a3.81,3.81,0,0,0,2.718-1.09L42.889,35.865A3.727,3.727,0,0,0,44,33.22V3.726A3.754,3.754,0,0,0,40.219,0H17.061a3.809,3.809,0,0,0-2.713,1.1ZM36.736,32.172,32.251,36.6a3.185,3.185,0,0,1-2.24.932H20.927a.946.946,0,0,1-.884-.575.922.922,0,0,1,.213-1.022l6.272-6.195a.922.922,0,0,0,.218-1.026.946.946,0,0,0-.889-.576H17.047a1.6,1.6,0,0,1-1.123-.455,1.549,1.549,0,0,1-.465-1.105V7.811a1.549,1.549,0,0,1,.465-1.105,1.6,1.6,0,0,1,1.123-.455H36.084a1.572,1.572,0,0,1,1.583,1.56V29.969a3.089,3.089,0,0,1-.931,2.2Z" transform="translate(0 0)" fill="#4c9f87" fill-rule="evenodd"/>
      <path id="Path_4315" data-name="Path 4315" d="M54.087,39.341l-4.506,4.425a3.207,3.207,0,0,1-2.251.932H38.2a.95.95,0,0,1-.888-.575A.919.919,0,0,1,37.53,43.1l6.3-6.195a.919.919,0,0,0,.219-1.026.95.95,0,0,0-.893-.576H34.305a1.607,1.607,0,0,1-1.128-.455,1.546,1.546,0,0,1-.468-1.105V14.98a1.545,1.545,0,0,1,.468-1.105,1.607,1.607,0,0,1,1.128-.455H53.432a1.576,1.576,0,0,1,1.591,1.56V37.138a3.082,3.082,0,0,1-.935,2.2Z" transform="translate(-17.264 -7.169)" fill="#fff" fill-rule="evenodd"/>
    </g>
  </g>
</svg>