<?xml version="1.0" encoding="UTF-8"?>
<svg xmlns="http://www.w3.org/2000/svg" xmlns:xlink="http://www.w3.org/1999/xlink" width="40px" height="40px" viewBox="0 0 40 40" version="1.1">
<g id="surface1">
<path style=" stroke:none;fill-rule:nonzero;fill:rgb(0%,35.686275%,61.960784%);fill-opacity:1;" d="M 7.511719 0 L 32.488281 0 C 36.636719 0 40 3.363281 40 7.511719 L 40 32.488281 C 40 36.636719 36.636719 40 32.488281 40 L 7.511719 40 C 3.363281 40 0 36.636719 0 32.488281 L 0 7.511719 C 0 3.363281 3.363281 0 7.511719 0 Z M 7.511719 0 "/>
<path style=" stroke:none;fill-rule:nonzero;fill:rgb(100%,100%,100%);fill-opacity:1;" d="M 9.101562 34.441406 C 9.808594 33.601562 10.53125 32.769531 11.230469 31.921875 C 11.460938 31.628906 11.75 31.699219 12.039062 31.699219 C 17.308594 31.699219 22.578125 31.699219 27.859375 31.699219 C 28.429688 31.699219 28.609375 31.570312 28.589844 30.980469 C 28.53125 29.859375 28.589844 28.738281 28.589844 27.609375 C 28.566406 27.378906 28.648438 27.152344 28.808594 26.988281 C 29.648438 26.210938 30.449219 25.421875 31.390625 24.519531 L 31.390625 34.519531 L 31.261719 34.519531 C 31.042969 34.441406 30.808594 34.417969 30.578125 34.460938 L 9.789062 34.460938 C 9.5625 34.511719 9.324219 34.507812 9.101562 34.441406 Z M 9.101562 34.441406 "/>
<path style=" stroke:none;fill-rule:nonzero;fill:rgb(100%,100%,100%);fill-opacity:1;" d="M 9.101562 34.441406 L 30.519531 34.441406 C 30.761719 34.441406 31.03125 34.339844 31.238281 34.570312 L 9 34.570312 Z M 9.101562 34.441406 "/>
<path style=" stroke:none;fill-rule:nonzero;fill:rgb(100%,100%,100%);fill-opacity:1;" d="M 9.089844 5.441406 L 31.371094 5.441406 C 31.371094 8.679688 31.371094 11.921875 31.371094 15.160156 C 31.371094 15.160156 31.371094 15.21875 31.269531 15.300781 C 30.410156 14.46875 29.570312 13.648438 28.710938 12.851562 C 28.566406 12.6875 28.507812 12.472656 28.550781 12.261719 C 28.550781 11.179688 28.550781 10.101562 28.550781 9.019531 C 28.550781 8.390625 28.441406 8.179688 27.75 8.179688 C 22.488281 8.179688 17.230469 8.179688 11.980469 8.179688 C 11.59375 8.21875 11.21875 8.054688 10.980469 7.75 C 10.410156 7 9.738281 6.210938 9.089844 5.441406 Z M 9.089844 5.441406 "/>
<path style=" stroke:none;fill-rule:nonzero;fill:rgb(100%,100%,100%);fill-opacity:1;" d="M 32.828125 19.539062 C 30.238281 16.980469 27.671875 14.390625 25.089844 11.820312 C 23.933594 10.636719 22.34375 9.980469 20.691406 10 L 13.628906 10 C 13.460938 10 13.25 9.910156 13.089844 10.109375 L 15.859375 13.339844 C 16.027344 13.527344 16.28125 13.617188 16.53125 13.570312 L 21.050781 13.570312 C 22.75 13.789062 24.242188 14.816406 25.050781 16.328125 L 18.828125 16.328125 C 17.941406 16.308594 17.105469 16.742188 16.609375 17.480469 L 21.191406 17.480469 C 21.316406 17.484375 21.441406 17.441406 21.539062 17.359375 C 21.980469 17.019531 22.546875 16.890625 23.089844 17 C 23.871094 17 24.660156 17 25.441406 17 C 25.921875 17.003906 26.359375 17.289062 26.558594 17.730469 L 25.859375 17.730469 C 22.96875 17.730469 20.089844 17.730469 17.210938 17.730469 C 16.917969 17.6875 16.617188 17.761719 16.382812 17.941406 C 16.144531 18.121094 15.988281 18.386719 15.949219 18.679688 C 16.101562 18.691406 16.25 18.691406 16.398438 18.679688 C 18.039062 18.589844 19.660156 18.679688 21.320312 18.460938 C 23.175781 18.304688 25.039062 18.285156 26.898438 18.398438 C 27.265625 18.378906 27.605469 18.585938 27.75 18.921875 L 16.390625 18.921875 C 16.21875 18.90625 16.050781 18.90625 15.878906 18.921875 C 15.582031 19.003906 15.378906 19.28125 15.378906 19.589844 C 15.378906 19.878906 15.71875 19.699219 15.898438 19.710938 C 16.5 19.710938 17.089844 19.761719 17.679688 19.710938 C 21.199219 19.511719 24.679688 19.710938 28.230469 19.621094 C 28.46875 19.621094 28.78125 19.621094 28.761719 19.921875 C 28.738281 20.21875 28.441406 20.191406 28.210938 20.191406 C 24.898438 20.191406 21.601562 20.261719 18.289062 20.128906 C 17.289062 20.128906 16.359375 20.128906 15.289062 20.128906 C 15.46875 20.460938 15.601562 20.691406 15.738281 20.921875 L 27.738281 20.921875 C 27.664062 21.21875 27.398438 21.425781 27.089844 21.429688 C 25.089844 21.554688 23.085938 21.535156 21.089844 21.371094 C 19.351562 21.21875 17.605469 21.160156 15.859375 21.191406 C 16.128906 21.980469 16.660156 22.191406 17.5 22.191406 C 20.289062 22.128906 23.089844 22.191406 25.890625 22.191406 C 26.070312 22.191406 26.261719 22.121094 26.429688 22.261719 C 26.050781 22.75 25.988281 22.859375 25.730469 22.839844 C 24.28125 22.691406 22.730469 23.320312 21.390625 22.429688 C 21.320312 22.382812 21.234375 22.355469 21.148438 22.359375 L 16.660156 22.359375 C 17.101562 23.09375 17.910156 23.53125 18.769531 23.5 C 20.628906 23.5 22.5 23.5 24.371094 23.5 L 25.101562 23.5 C 25.101562 23.558594 25.101562 23.609375 25.171875 23.660156 L 23.421875 25.371094 C 22.847656 25.953125 22.066406 26.277344 21.25 26.269531 C 19.679688 26.269531 18.109375 26.269531 16.539062 26.269531 C 16.359375 26.269531 16.148438 26.199219 16 26.371094 L 13 29.839844 C 15.769531 29.839844 18.390625 29.839844 21 29.839844 C 22.507812 29.828125 23.949219 29.214844 25 28.128906 C 27.621094 25.539062 30.210938 22.921875 32.828125 20.320312 C 33.148438 20 33.148438 19.859375 32.828125 19.539062 Z M 32.828125 19.539062 "/>
</g>
</svg>
