<svg width="48" height="48" viewBox="0 0 48 48" fill="none" xmlns="http://www.w3.org/2000/svg">
<g clip-path="url(#clip0_62_4459)">
<path d="M17.6377 39.7472V8.0056C17.6377 6.36762 19.4526 5.38093 20.8273 6.27156L45.3239 22.1423C46.5809 22.9567 46.5809 24.7961 45.3239 25.6104L20.8273 41.4812C19.4526 42.3718 17.6377 41.3851 17.6377 39.7472Z" fill="#99E5FC"/>
<path d="M1 39.9932V8.25169C1 6.61371 2.81493 5.62702 4.18962 6.51765L28.6862 22.3884C29.9432 23.2028 29.9432 25.0422 28.6862 25.8565L4.18962 41.7273C2.81493 42.6179 1 41.6312 1 39.9932Z" fill="#3264F6"/>
<path d="M17.6377 33.014V15.2285L28.7637 22.3142C30.0326 23.1223 30.0401 24.9722 28.7779 25.7906L17.6377 33.014Z" fill="#4C9ED9"/>
</g>
<defs>
<clipPath id="clip0_62_4459">
<rect width="48" height="48" fill="white"/>
</clipPath>
</defs>
</svg>